<?xml version="1.0" encoding="utf-8"?>
<!-- Generator: Adobe Illustrator 16.0.0, SVG Export Plug-In . SVG Version: 6.00 Build 0)  -->
<!DOCTYPE svg PUBLIC "-//W3C//DTD SVG 1.1//EN" "http://www.w3.org/Graphics/SVG/1.1/DTD/svg11.dtd">
<svg version="1.1" id="icon" xmlns="http://www.w3.org/2000/svg" xmlns:xlink="http://www.w3.org/1999/xlink" x="0px" y="0px"
	 width="800px" height="800px" viewBox="0 0 800 800" enable-background="new 0 0 800 800" xml:space="preserve">
<path d="M594.383,173.575c-18.1-2.46-27.659,12.74-28.846,29.688l-13.495,134.416c-0.252,6.244-5.518,11.114-11.769,10.862
	c-6.244-0.245-11.106-5.51-10.861-11.768l8.186-240.043c0.597-16.984-12.675-31.234-29.658-31.838
	c-16.984-0.604-31.234,12.675-31.846,29.651l-7.999,238.13c0,5.036-4.085,9.114-9.114,9.114c-5.035,0-9.113-4.079-9.113-9.114
	l-0.008-271.147c0-16.983-13.775-30.759-30.766-30.759c-16.991,0-30.767,13.775-30.767,30.759l-0.223,266.091
	c0,5.719-4.633,10.322-10.358,10.351c-8.366,0.043-10.014-7.826-10.014-7.826C367.531,329.326,357.475,93.7,357.475,93.7
	c-0.885-16.969-15.364-30.004-32.326-29.112c-16.97,0.877-30.012,15.365-29.119,32.327l15.919,336.896
	c1.611,10.121-5.294,19.623-15.415,21.234c-10.129,1.611-19.631-5.279-21.242-15.408l-29.356-119.525
	c-4.036-16.516-20.688-26.615-37.19-22.587c-16.509,4.042-26.615,20.695-22.58,37.197l48.714,199.185
	c0.899,3.654,70.445,127.941,95.802,133.904v69.172c0,22.127,17.934,40.061,40.053,40.061h136.236
	c22.126,0,40.06-17.934,40.06-40.061v-75.789c35.88-45.923,49.54-132.113,50.116-206.328l17.408-248.524
	C615.732,189.379,610.984,175.833,594.383,173.575z"/>
</svg>
