<?xml version="1.0" encoding="utf-8"?>
<!-- Generator: Adobe Illustrator 16.0.0, SVG Export Plug-In . SVG Version: 6.00 Build 0)  -->
<!DOCTYPE svg PUBLIC "-//W3C//DTD SVG 1.1//EN" "http://www.w3.org/Graphics/SVG/1.1/DTD/svg11.dtd">
<svg version="1.1" id="icon" xmlns="http://www.w3.org/2000/svg" xmlns:xlink="http://www.w3.org/1999/xlink" x="0px" y="0px"
	 width="800px" height="800px" viewBox="0 0 800 800" enable-background="new 0 0 800 800" xml:space="preserve">
<g>
	<path fill="none" d="M709.22,322.705l-0.026-0.053c0.031,0.007,0.063,0.015,0.096,0.019
		C709.268,322.685,709.24,322.691,709.22,322.705z"/>
	<path d="M888.231,683.775c0.001-0.017,0.005-0.032,0.005-0.048v0.049C888.234,683.776,888.232,683.776,888.231,683.775z"/>
	<path d="M699.896,307.275c-0.002-0.001-0.004-0.001-0.005-0.001c0.001-0.016,0.005-0.032,0.005-0.047V307.275z"/>
</g>
<g>
</g>
<path d="M560.243,303.373c-0.57-3.64-0.396-24.512-16.203-28.531c-17.568-4.465-33.463,1.585-34.771,16.567l0.123-12.577
	c0-21.23-17.203-26.119-38.426-26.119c-20.871,0-37.301,4.779-38.353,20.894v-4.896c0-21.208-17.905-25.922-39.136-25.922
	c-20.521,0-36.592,4.465-37.614,23.963c-0.841-8.675-14.536-14.272-34.312-13.249c-19.761,1.045-36.985,8.981-35.948,28.75
	l-0.072,68.872c-20.463,8.258-43.082,15.106-44.26,47.715c0,0-3.091,50.17-0.438,65.861c7.169,42.562,60.694,145.352,83.108,150.964
	l-0.073,104.945c0,25.242,24.388,45.756,49.6,46.59c1.674,0.197,115.477,0.336,115.477,0.336c27.625,0,44.302-22.407,44.302-50.024
	v-95.093c15.056-3.567,27.522-33.501,25.375-51.238L560.243,303.373z"/>
</svg>
